<svg xmlns="http://www.w3.org/2000/svg" version="1.1" xmlns:xlink="http://www.w3.org/1999/xlink" xmlns:svgjs="http://svgjs.dev/svgjs" width="1500" height="1500" viewBox="0 0 1500 1500"><g transform="matrix(1,0,0,1,-0.323615160350073,-0.3236151603499593)"><svg viewBox="0 0 343 343" data-background-color="#dfdad6" preserveAspectRatio="xMidYMid meet" height="1500" width="1500" xmlns="http://www.w3.org/2000/svg" xmlns:xlink="http://www.w3.org/1999/xlink"><g id="tight-bounds" transform="matrix(1,0,0,1,0.0740000000000407,0.07400000000001228)"><svg viewBox="0 0 342.85155851775386 342.85155851775386" height="342.85155851775386" width="342.85155851775386"><g><svg></svg></g><g><svg viewBox="0 0 342.85155851775386 342.85155851775386" height="342.85155851775386" width="342.85155851775386"><g><path d="M0 171.426c0-94.676 76.75-171.426 171.426-171.426 94.676 0 171.426 76.75 171.426 171.426 0 94.676-76.75 171.426-171.426 171.426-94.676 0-171.426-76.75-171.426-171.426zM171.426 340.779c93.531 0 169.353-75.822 169.353-169.353 0-93.531-75.822-169.353-169.353-169.353-93.531 0-169.353 75.822-169.353 169.353 0 93.531 75.822 169.353 169.353 169.353z" data-fill-palette-color="tertiary" fill="#ff4538" stroke="transparent"></path><ellipse rx="164.56874808852186" ry="164.56874808852186" cx="171.42577925887693" cy="171.42577925887693" fill="#ff4538" stroke="transparent" stroke-width="0" fill-opacity="1" data-fill-palette-color="tertiary"></ellipse></g><g transform="matrix(1,0,0,1,64.84655864529837,117.96194595210409)"><svg viewBox="0 0 213.1584412271571 106.92766661354567" height="106.92766661354567" width="213.1584412271571"><g><svg viewBox="0 0 213.1584412271571 106.92766661354567" height="106.92766661354567" width="213.1584412271571"><g><svg viewBox="0 0 213.1584412271571 106.92766661354567" height="106.92766661354567" width="213.1584412271571"><g transform="matrix(1,0,0,1,0,64.31559606617367)"><svg viewBox="0 0 213.1584412271571 42.612070547372" height="42.612070547372" width="213.1584412271571"><g id="textblocktransform"><svg viewBox="0 0 213.1584412271571 42.612070547372" height="42.612070547372" width="213.1584412271571" id="textblock"><g><svg viewBox="0 0 213.1584412271571 22.982914695714737" height="22.982914695714737" width="213.1584412271571"><g transform="matrix(1,0,0,1,0,0)"><svg width="213.1584412271571" viewBox="1.5 -38.7 460.91 49.7" height="22.982914695714737" data-palette-color="#dfdad6"><path d="M14.65 0.55L14.65 0.55Q9.1 0.55 5.3-4.1 1.5-8.75 1.5-15.5L1.5-15.5Q1.5-23.75 6.08-29.4 10.65-35.05 17.3-35.05L17.3-35.05Q19.9-35.05 22.13-34.52 24.35-34 25.3-33.45L25.3-33.45 26.2-32.9 22.8-25.95Q21.65-26.95 19.55-27.83 17.45-28.7 15.75-28.7L15.75-28.7Q12.3-28.7 10.23-25.85 8.15-23 8.15-17.73 8.15-12.45 10.3-9.08 12.45-5.7 16.15-5.7L16.15-5.7Q18.55-5.7 20.5-7.2 22.45-8.7 23.25-11.2L23.25-11.2 27.4-8.8Q25.75-4.4 22.35-1.93 18.95 0.55 14.65 0.55ZM28.95-10.45Q28.95-16.85 32.4-21.3 35.85-25.75 40.47-25.75 45.1-25.75 47.67-22.75 50.25-19.75 50.25-14.8L50.25-14.8Q50.25-8.2 46.92-3.83 43.6 0.55 38.55 0.55L38.55 0.55Q34.4 0.55 31.67-2.58 28.95-5.7 28.95-10.45L28.95-10.45ZM44.65-12.2L44.65-12.2Q44.65-19.45 39.7-19.45L39.7-19.45Q34.55-19.45 34.55-12.65L34.55-12.65Q34.55-9.1 36-7.1 37.45-5.1 39.82-5.1 42.2-5.1 43.42-6.93 44.65-8.75 44.65-12.2ZM69.05-12.65Q69.05-16.1 68.45-17.25 67.84-18.4 65.65-18.4 63.45-18.4 60.65-16.65L60.65-16.65 60.65-13 61.2-1.25 54.5 0 55.1-12.15Q54.9-18.85 54-24.15L54-24.15 60.05-25.45Q60.4-22.55 60.55-19.8L60.55-19.8Q61.3-20.8 62.25-21.78 63.2-22.75 65.25-23.98 67.3-25.2 69.4-25.2 71.5-25.2 72.95-23.85 74.4-22.5 74.8-20.15L74.8-20.15Q78.95-25.2 83.2-25.2L83.2-25.2Q85.84-25.2 87.4-23.43 88.95-21.65 88.95-18.6L88.95-18.6 88.65-13 89.2-1 82.45 0.25 83.05-12.65Q83.05-16.1 82.45-17.25 81.84-18.4 79.7-18.4 77.55-18.4 74.84-16.75L74.84-16.75 74.65-13 75.2-1 68.45 0.25 69.05-12.65ZM109.19-12.65Q109.19-16.1 108.59-17.25 107.99-18.4 105.79-18.4 103.59-18.4 100.79-16.65L100.79-16.65 100.79-13 101.34-1.25 94.64 0 95.24-12.15Q95.04-18.85 94.14-24.15L94.14-24.15 100.19-25.45Q100.54-22.55 100.69-19.8L100.69-19.8Q101.44-20.8 102.39-21.78 103.34-22.75 105.39-23.98 107.44-25.2 109.54-25.2 111.64-25.2 113.09-23.85 114.54-22.5 114.94-20.15L114.94-20.15Q119.09-25.2 123.34-25.2L123.34-25.2Q125.99-25.2 127.54-23.43 129.09-21.65 129.09-18.6L129.09-18.6 128.79-13 129.34-1 122.59 0.25 123.19-12.65Q123.19-16.1 122.59-17.25 121.99-18.4 119.84-18.4 117.69-18.4 114.99-16.75L114.99-16.75 114.79-13 115.34-1 108.59 0.25 109.19-12.65ZM140.84 0L140.84 0Q138.14 0 136.47-1.78 134.79-3.55 134.79-6.45L134.79-6.45 135.09-12.2 134.54-24.2 141.24-25.45 140.59-10.25Q140.59-8.1 141.37-7.1 142.14-6.1 143.84-6.1 145.54-6.1 148.54-7.8L148.54-7.8 148.54-10.8 147.99-23.95 154.74-25.2 154.14-12.7 154.19-8.6Q154.19-5.4 155.84-2.15L155.84-2.15 150.64 0.15Q148.99-3.1 148.64-5.05L148.64-5.05Q144.14 0 140.84 0ZM174.84-12.65Q174.84-16.1 174.24-17.25 173.64-18.4 171.44-18.4 169.24-18.4 166.44-16.65L166.44-16.65 166.44-13 166.99-1.25 160.29 0 160.89-12.15Q160.69-18.85 159.79-24.15L159.79-24.15 165.84-25.45Q166.19-22.55 166.34-19.8L166.34-19.8Q167.09-20.8 168.04-21.78 168.99-22.75 171.04-23.98 173.09-25.2 175.36-25.2 177.64-25.2 179.19-23.43 180.74-21.65 180.74-18.6L180.74-18.6 180.44-13 180.99-1 174.24 0.25 174.84-12.65ZM186.49-24.2L193.19-25.45 192.59-13 193.14-1.25 186.44 0 187.04-12.15 186.49-24.2ZM186.14-32.77Q186.14-34.45 187.44-35.77 188.74-37.1 190.44-37.1 192.14-37.1 193.04-36.18 193.94-35.25 193.94-33.4 193.94-31.55 192.66-30.23 191.39-28.9 189.71-28.9 188.04-28.9 187.09-30 186.14-31.1 186.14-32.77ZM197.73-24.2L200.63-24.2 200.63-29.65 207.38-30.95 206.73-24.2 212.78-24.2 212.23-20.1 206.53-20.1 206.28-9.65Q206.28-7.3 206.73-6.53 207.18-5.75 208.38-5.75 209.58-5.75 211.58-6.3L211.58-6.3 211.88-2.75Q208.58 0 206.08 0 203.58 0 201.98-1.83 200.38-3.65 200.38-6.6L200.38-6.6 200.68-12.2 200.63-20.1 197.18-20.1 197.73-24.2ZM223.58 11L217.13 9.65 222.28-1.9 218.58-12 213.53-24.15 220.18-25.4 223.38-14.75 225.03-9.7 225.68-9.7 226.88-13.35 230.48-25.45 236.63-24.7 227.78-1.45 223.58 11ZM248.48-34.5L259.33-34.5Q264.13-34.5 266.93-32.33 269.73-30.15 269.73-26.5L269.73-26.5Q269.73-20.65 264.93-18.35L264.93-18.35Q271.43-16.1 271.43-10.05L271.43-10.05Q271.43-5.5 267.53-2.48 263.63 0.55 257.73 0.55L257.73 0.55Q254.63 0.55 248.48 0L248.48 0 249.08-12.15 248.48-34.5ZM258.68-14.85L258.68-14.85 254.63-14.85 254.58-13 254.93-4.85Q257.83-4.6 259.38-4.6L259.38-4.6Q262.03-4.6 263.5-5.93 264.98-7.25 264.98-9.8 264.98-12.35 263.48-13.6 261.98-14.85 258.68-14.85ZM257.53-29.45L257.53-29.45 255.08-29.45 254.78-19.7 258.03-19.7Q260.58-19.7 261.93-21.08 263.28-22.45 263.28-25L263.28-25Q263.28-29.45 257.53-29.45ZM274.87-10.45Q274.87-16.85 278.32-21.3 281.77-25.75 286.4-25.75 291.02-25.75 293.6-22.75 296.17-19.75 296.17-14.8L296.17-14.8Q296.17-8.2 292.85-3.83 289.52 0.55 284.47 0.55L284.47 0.55Q280.32 0.55 277.6-2.58 274.87-5.7 274.87-10.45L274.87-10.45ZM290.57-12.2L290.57-12.2Q290.57-19.45 285.62-19.45L285.62-19.45Q280.47-19.45 280.47-12.65L280.47-12.65Q280.47-9.1 281.92-7.1 283.37-5.1 285.75-5.1 288.12-5.1 289.35-6.93 290.57-8.75 290.57-12.2ZM298.97-10.45Q298.97-16.85 302.42-21.3 305.87-25.75 310.5-25.75 315.12-25.75 317.7-22.75 320.27-19.75 320.27-14.8L320.27-14.8Q320.27-8.2 316.95-3.83 313.62 0.55 308.57 0.55L308.57 0.55Q304.42 0.55 301.7-2.58 298.97-5.7 298.97-10.45L298.97-10.45ZM314.67-12.2L314.67-12.2Q314.67-19.45 309.72-19.45L309.72-19.45Q304.57-19.45 304.57-12.65L304.57-12.65Q304.57-9.1 306.02-7.1 307.47-5.1 309.85-5.1 312.22-5.1 313.45-6.93 314.67-8.75 314.67-12.2ZM345.87-3.3L340.17 0.5 330.77-13.35 330.77-13 331.32-1.25 324.57 0 325.17-12.15 324.57-37.45 331.42-38.7 330.77-14.55 340.77-25.5 345.47-22.3 336.72-14.1 345.87-3.3ZM354.11-4.55L358.01-9.95Q362.26-5.7 366.51-5.7L366.51-5.7Q368.71-5.7 370.04-6.73 371.36-7.75 371.36-9.38 371.36-11 369.76-12.13 368.16-13.25 365.89-14.1 363.61-14.95 361.36-16.03 359.11-17.1 357.51-19.1 355.91-21.1 355.91-23.95L355.91-23.95Q355.91-28.45 359.66-31.73 363.41-35 368.56-35L368.56-35Q370.91-35 373.11-34.5 375.31-34 377.36-33.05L377.36-33.05 373.96-25.75Q372.56-26.85 370.14-27.78 367.71-28.7 365.89-28.7 364.06-28.7 362.94-27.83 361.81-26.95 361.81-25.5 361.81-24.05 363.41-22.93 365.01-21.8 367.29-20.95 369.56-20.1 371.84-19.07 374.11-18.05 375.71-16.05 377.31-14.05 377.31-11.2L377.31-11.2Q377.31-6.5 373.56-2.98 369.81 0.55 364.81 0.55L364.81 0.55Q361.06 0.55 358.16-1.25L358.16-1.25Q355.61-2.8 354.56-4L354.56-4 354.11-4.55ZM402.06-14.4L403.81-6.25 404.46-6.25 406.06-13.1 408.66-25.45 414.76-24.7 411.11-12.3 408.06-0.6 399.86 0.15 397.11-12 396.86-12.8 393.51-0.6 385.56 0.15 382.66-12 379.21-24.15 385.76-25.4 387.81-14.4 389.61-6.25 390.26-6.25 394.56-20.5 393.51-24.15 399.96-25.4 402.06-14.4ZM423.06 0Q420.11 0 418.23-1.88 416.36-3.75 416.36-6.93 416.36-10.1 419.26-12.43 422.16-14.75 426.31-14.75L426.31-14.75 429.71-14.75 429.71-15.6Q429.71-18.05 428.71-18.95 427.71-19.85 424.96-19.85L424.96-19.85Q423.81-19.85 422.23-19.38 420.66-18.9 418.71-17.9L418.71-17.9 417.26-21.85Q419.41-23.35 422.48-24.55 425.56-25.75 427.56-25.75L427.56-25.75Q435.41-25.75 435.41-18.15L435.41-18.15 435.41-8.35Q435.41-5.55 437.16-2.1L437.16-2.1 431.86 0.15Q430.61-2.25 430.01-4.15L430.01-4.15Q427.26 0 423.06 0L423.06 0ZM425.16-5.1L425.16-5.1Q427.16-5.1 429.71-7.15L429.71-7.15 429.71-10.5Q427.06-11.1 425.41-11.1L425.41-11.1Q422.26-11.1 422.26-8.3L422.26-8.3Q422.26-6.85 423.06-5.98 423.86-5.1 425.16-5.1ZM454.86-25.25L454.86-25.25Q458.06-25.25 460.23-22.45 462.41-19.65 462.41-14.9L462.41-14.9Q462.41-8.25 458.98-4.13 455.56 0 450.46 0L450.46 0Q449.41 0 448.11-0.15L448.11-0.15 448.36 9.4 441.51 10.65 442.16-12.15 442.21-12.15Q442.01-18.85 441.11-24.15L441.11-24.15 447.16-25.45Q447.46-22.8 447.66-20.2L447.66-20.2Q447.76-20.45 448.68-21.58 449.61-22.7 451.41-23.98 453.21-25.25 454.86-25.25ZM452.91-18.75L452.91-18.75Q450.26-18.75 447.76-17.3L447.76-17.3 447.76-13 447.96-5.85Q450.66-5.4 452.06-5.4L452.06-5.4Q456.86-5.4 456.86-12.08 456.86-18.75 452.91-18.75Z" opacity="1" transform="matrix(1,0,0,1,0,0)" fill="#dfdad6" class="wordmark-text-0" data-fill-palette-color="quaternary" id="text-0"></path></svg></g></svg></g><g transform="matrix(1,0,0,1,0,28.408629265420288)"><svg viewBox="0 0 213.1584412271571 14.203441281951706" height="14.203441281951706" width="213.1584412271571"><g transform="matrix(1,0,0,1,0,0)"><svg width="213.1584412271571" viewBox="2.13 -33.13 626.18 41.730000000000004" height="14.203441281951706" data-palette-color="#dfdad6"><path d="M12.68 0.58L12.68 0.58Q10.38 0.58 8.46 0.2 6.55-0.18 5.05-0.73 3.55-1.28 2.55-1.83L2.55-1.83 2.13-5.95Q4.05-4.8 6.66-3.94 9.28-3.08 12.35-3.08L12.35-3.08Q16.05-3.08 17.82-4.39 19.6-5.7 19.6-8.33L19.6-8.33 19.6-8.72Q19.6-10.45 18.9-11.55 18.2-12.65 16.54-13.4 14.88-14.15 12.03-14.8L12.03-14.8Q8.43-15.65 6.26-16.81 4.1-17.98 3.14-19.73 2.18-21.48 2.18-24.08L2.18-24.08 2.18-24.3Q2.18-28.23 4.75-30.36 7.33-32.5 12.55-32.5L12.55-32.5Q15.98-32.5 18.39-31.8 20.8-31.1 22.33-30.25L22.33-30.25 22.7-26.45Q20.93-27.5 18.56-28.24 16.2-28.98 13.15-28.98L13.15-28.98Q10.73-28.98 9.22-28.4 7.73-27.83 7.05-26.75 6.38-25.68 6.38-24.15L6.38-24.15 6.38-24.05Q6.38-22.5 7.04-21.4 7.7-20.3 9.36-19.5 11.03-18.7 14.1-17.95L14.1-17.95Q17.63-17.13 19.75-16.05 21.88-14.98 22.84-13.25 23.8-11.53 23.8-8.75L23.8-8.75 23.8-8.22Q23.8-3.9 21.01-1.66 18.23 0.58 12.68 0.58ZM57.58 0L51.36 0 45.36-24.4 49.53-24.4 54.33-2.95 54.81-2.95 59.81-23.75 65.53-23.75 70.53-2.95 70.98-2.95 75.83-24.4 79.98-24.4 73.98 0 67.78 0 63.66-17.35 62.86-20.83 62.48-20.83 61.71-17.35 57.58 0ZM121.39 0L117.37 0 117.54-5.93 117.39-6.55 117.39-14.33 117.42-15.75Q117.42-18.73 115.91-20.15 114.39-21.58 111.12-21.58L111.12-21.58Q108.49-21.58 106.31-20.83 104.12-20.08 102.42-19.07L102.42-19.07 102.79-22.53Q103.74-23.1 105.06-23.66 106.37-24.23 108.06-24.6 109.74-24.98 111.77-24.98L111.77-24.98Q114.39-24.98 116.23-24.34 118.07-23.7 119.21-22.5 120.34-21.3 120.87-19.6 121.39-17.9 121.39-15.8L121.39-15.8 121.39 0ZM108.97 0.53L108.97 0.53Q105.34 0.53 103.41-1.24 101.47-3 101.47-6.28L101.47-6.28 101.47-7Q101.47-10.38 103.56-12.04 105.64-13.7 110.19-14.35L110.19-14.35 117.92-15.45 118.14-12.5 110.69-11.43Q107.89-11.03 106.69-10.06 105.49-9.1 105.49-7.23L105.49-7.23 105.49-6.83Q105.49-4.9 106.68-3.88 107.87-2.85 110.24-2.85L110.24-2.85Q112.34-2.85 113.84-3.58 115.34-4.3 116.27-5.53 117.19-6.75 117.52-8.25L117.52-8.25 118.14-5.5 117.37-5.5Q117.02-3.9 116.06-2.53 115.09-1.15 113.37-0.31 111.64 0.53 108.97 0.53ZM158.6 0.53L158.6 0.53Q156.35 0.53 154.7-0.23 153.05-0.98 152.03-2.38 151-3.78 150.65-5.63L150.65-5.63 149.33-5.63 150.5-9.43Q150.6-7.23 151.49-5.76 152.38-4.3 153.9-3.58 155.43-2.85 157.35-2.85L157.35-2.85Q160.43-2.85 162.07-4.65 163.7-6.45 163.7-9.93L163.7-9.93 163.7-14.6Q163.7-18.05 162.08-19.85 160.45-21.65 157.35-21.65L157.35-21.65Q155.5-21.65 154.08-20.93 152.65-20.2 151.72-18.95 150.78-17.7 150.43-16.1L150.43-16.1 149.43-18.93 150.6-18.93Q151-20.6 151.97-21.96 152.93-23.33 154.62-24.14 156.3-24.95 158.78-24.95L158.78-24.95Q163.18-24.95 165.48-22.21 167.78-19.48 167.78-14.28L167.78-14.28 167.78-10.23Q167.78-4.98 165.47-2.23 163.15 0.53 158.6 0.53ZM150.6 8.6L146.58 8.6 146.58-24.4 150.63-24.4 150.45-18.53 150.5-17.28 150.5-7 150.48-6.18 150.6 0.68 150.6 8.6ZM234.67 0.58L234.67 0.58Q232.37 0.58 230.46 0.2 228.55-0.18 227.05-0.73 225.55-1.28 224.55-1.83L224.55-1.83 224.12-5.95Q226.05-4.8 228.66-3.94 231.27-3.08 234.35-3.08L234.35-3.08Q238.05-3.08 239.82-4.39 241.6-5.7 241.6-8.33L241.6-8.33 241.6-8.72Q241.6-10.45 240.9-11.55 240.2-12.65 238.54-13.4 236.87-14.15 234.02-14.8L234.02-14.8Q230.42-15.65 228.26-16.81 226.1-17.98 225.14-19.73 224.17-21.48 224.17-24.08L224.17-24.08 224.17-24.3Q224.17-28.23 226.75-30.36 229.32-32.5 234.55-32.5L234.55-32.5Q237.97-32.5 240.39-31.8 242.8-31.1 244.32-30.25L244.32-30.25 244.7-26.45Q242.92-27.5 240.56-28.24 238.2-28.98 235.15-28.98L235.15-28.98Q232.72-28.98 231.22-28.4 229.72-27.83 229.05-26.75 228.37-25.68 228.37-24.15L228.37-24.15 228.37-24.05Q228.37-22.5 229.04-21.4 229.7-20.3 231.36-19.5 233.02-18.7 236.1-17.95L236.1-17.95Q239.62-17.13 241.75-16.05 243.87-14.98 244.84-13.25 245.8-11.53 245.8-8.75L245.8-8.75 245.8-8.22Q245.8-3.9 243.01-1.66 240.22 0.58 234.67 0.58ZM290.71 0L286.66 0 286.66-15.18Q286.66-17.15 286.12-18.57 285.58-20 284.37-20.79 283.16-21.58 281.06-21.58L281.06-21.58Q279.13-21.58 277.73-20.85 276.33-20.13 275.47-18.89 274.61-17.65 274.26-16.07L274.26-16.07 273.36-18.95 274.41-18.95Q274.78-20.6 275.78-21.96 276.78-23.33 278.47-24.14 280.16-24.95 282.58-24.95L282.58-24.95Q285.48-24.95 287.27-23.85 289.06-22.75 289.88-20.69 290.71-18.63 290.71-15.63L290.71-15.63 290.71 0ZM274.38 0L270.33 0 270.33-33.13 274.36-33.13 274.36-25.18 274.23-18.18 274.38-17.85 274.38 0ZM334.47 0L330.44 0 330.62-5.93 330.47-6.55 330.47-14.33 330.49-15.75Q330.49-18.73 328.98-20.15 327.47-21.58 324.19-21.58L324.19-21.58Q321.57-21.58 319.38-20.83 317.19-20.08 315.49-19.07L315.49-19.07 315.87-22.53Q316.82-23.1 318.13-23.66 319.44-24.23 321.13-24.6 322.82-24.98 324.84-24.98L324.84-24.98Q327.47-24.98 329.31-24.34 331.14-23.7 332.28-22.5 333.42-21.3 333.94-19.6 334.47-17.9 334.47-15.8L334.47-15.8 334.47 0ZM322.04 0.53L322.04 0.53Q318.42 0.53 316.48-1.24 314.54-3 314.54-6.28L314.54-6.28 314.54-7Q314.54-10.38 316.63-12.04 318.72-13.7 323.27-14.35L323.27-14.35 330.99-15.45 331.22-12.5 323.77-11.43Q320.97-11.03 319.77-10.06 318.57-9.1 318.57-7.23L318.57-7.23 318.57-6.83Q318.57-4.9 319.76-3.88 320.94-2.85 323.32-2.85L323.32-2.85Q325.42-2.85 326.92-3.58 328.42-4.3 329.34-5.53 330.27-6.75 330.59-8.25L330.59-8.25 331.22-5.5 330.44-5.5Q330.09-3.9 329.13-2.53 328.17-1.15 326.44-0.31 324.72 0.53 322.04 0.53ZM363.5-14.93L363.5-14.93 362.58-18.05 363.58-18.1Q364.38-21.2 366.33-22.99 368.28-24.78 371.5-24.78L371.5-24.78Q372.3-24.78 372.94-24.65 373.58-24.53 374.08-24.35L374.08-24.35 374.33-20.43Q373.7-20.63 372.94-20.75 372.18-20.88 371.25-20.88L371.25-20.88Q368.5-20.88 366.47-19.35 364.43-17.82 363.5-14.93ZM363.7 0L359.65 0 359.65-24.4 363.6-24.4 363.4-17.2 363.7-16.9 363.7 0ZM406.89 0.55L406.89 0.55Q401.31 0.55 398.49-2.18 395.66-4.9 395.66-9.98L395.66-9.98 395.66-14.33Q395.66-19.48 398.29-22.26 400.91-25.05 405.96-25.05L405.96-25.05Q409.36-25.05 411.64-23.79 413.91-22.53 415.06-20.2 416.21-17.88 416.21-14.65L416.21-14.65 416.21-13.75Q416.21-12.95 416.15-12.15 416.09-11.35 415.99-10.58L415.99-10.58 412.26-10.58Q412.31-11.78 412.33-12.85 412.34-13.93 412.34-14.83L412.34-14.83Q412.34-17.05 411.63-18.59 410.91-20.13 409.5-20.94 408.09-21.75 405.96-21.75L405.96-21.75Q402.81-21.75 401.24-19.93 399.66-18.1 399.66-14.7L399.66-14.7 399.66-12.38 399.69-11.88 399.69-9.55Q399.69-8.03 400.14-6.8 400.59-5.58 401.55-4.69 402.51-3.8 404-3.34 405.49-2.88 407.54-2.88L407.54-2.88Q409.91-2.88 411.96-3.5 414.01-4.13 415.81-5.2L415.81-5.2 415.44-1.7Q413.81-0.68 411.66-0.06 409.51 0.55 406.89 0.55ZM415.14-10.58L397.79-10.58 397.79-13.63 415.14-13.63 415.14-10.58ZM496.86 0L492.58 0 491.68-6.55Q491.43-8.4 490.83-9.76 490.23-11.13 489-11.9 487.76-12.68 485.48-12.68L485.48-12.68 476.81-12.7 476.81-15.98 486.08-16Q489.36-16 490.76-17.61 492.16-19.23 492.16-22L492.16-22 492.16-22.75Q492.16-25.5 490.73-27.01 489.31-28.53 485.98-28.53L485.98-28.53 476.68-28.53 476.68-31.95 486.53-31.95Q491.68-31.95 494.02-29.69 496.36-27.43 496.36-23.45L496.36-23.45 496.36-22.6Q496.36-19.48 494.88-17.49 493.41-15.5 489.98-15.08L489.98-15.08 489.98-14.58 488.21-15.2Q490.98-15 492.5-13.99 494.01-12.98 494.71-11.23 495.41-9.47 495.78-7.03L495.78-7.03 496.86 0ZM478.06 0L473.96 0 473.96-31.95 478.03-31.95 478.03-14.88 478.06-13.3 478.06 0ZM530.87 0.55L530.87 0.55Q525.29 0.55 522.47-2.18 519.64-4.9 519.64-9.98L519.64-9.98 519.64-14.33Q519.64-19.48 522.27-22.26 524.89-25.05 529.94-25.05L529.94-25.05Q533.34-25.05 535.62-23.79 537.89-22.53 539.04-20.2 540.19-17.88 540.19-14.65L540.19-14.65 540.19-13.75Q540.19-12.95 540.13-12.15 540.07-11.35 539.97-10.58L539.97-10.58 536.24-10.58Q536.29-11.78 536.31-12.85 536.32-13.93 536.32-14.83L536.32-14.83Q536.32-17.05 535.61-18.59 534.89-20.13 533.48-20.94 532.07-21.75 529.94-21.75L529.94-21.75Q526.79-21.75 525.22-19.93 523.64-18.1 523.64-14.7L523.64-14.7 523.64-12.38 523.67-11.88 523.67-9.55Q523.67-8.03 524.12-6.8 524.57-5.58 525.53-4.69 526.49-3.8 527.98-3.34 529.47-2.88 531.52-2.88L531.52-2.88Q533.89-2.88 535.94-3.5 537.99-4.13 539.79-5.2L539.79-5.2 539.42-1.7Q537.79-0.68 535.64-0.06 533.49 0.55 530.87 0.55ZM539.12-10.58L521.77-10.58 521.77-13.63 539.12-13.63 539.12-10.58ZM582.88 0L578.85 0 579.03-5.93 578.88-6.55 578.88-14.33 578.9-15.75Q578.9-18.73 577.39-20.15 575.88-21.58 572.6-21.58L572.6-21.58Q569.98-21.58 567.79-20.83 565.6-20.08 563.9-19.07L563.9-19.07 564.28-22.53Q565.23-23.1 566.54-23.66 567.85-24.23 569.54-24.6 571.23-24.98 573.25-24.98L573.25-24.98Q575.88-24.98 577.72-24.34 579.55-23.7 580.69-22.5 581.83-21.3 582.35-19.6 582.88-17.9 582.88-15.8L582.88-15.8 582.88 0ZM570.45 0.53L570.45 0.53Q566.83 0.53 564.89-1.24 562.95-3 562.95-6.28L562.95-6.28 562.95-7Q562.95-10.38 565.04-12.04 567.13-13.7 571.68-14.35L571.68-14.35 579.4-15.45 579.63-12.5 572.18-11.43Q569.38-11.03 568.18-10.06 566.98-9.1 566.98-7.23L566.98-7.23 566.98-6.83Q566.98-4.9 568.17-3.88 569.35-2.85 571.73-2.85L571.73-2.85Q573.83-2.85 575.33-3.58 576.83-4.3 577.75-5.53 578.68-6.75 579-8.25L579-8.25 579.63-5.5 578.85-5.5Q578.5-3.9 577.54-2.53 576.58-1.15 574.85-0.31 573.13 0.53 570.45 0.53ZM616.11 0.53L616.11 0.53Q611.71 0.53 609.41-2.2 607.11-4.93 607.11-10.15L607.11-10.15 607.11-14.18Q607.11-19.43 609.44-22.19 611.76-24.95 616.29-24.95L616.29-24.95Q618.54-24.95 620.19-24.19 621.84-23.43 622.86-22.05 623.89-20.68 624.24-18.8L624.24-18.8 625.56-18.8 624.36-15.08Q624.29-17.23 623.4-18.69 622.51-20.15 621-20.9 619.49-21.65 617.54-21.65L617.54-21.65Q614.44-21.65 612.8-19.85 611.16-18.05 611.16-14.55L611.16-14.55 611.16-9.9Q611.16-6.45 612.8-4.65 614.44-2.85 617.54-2.85L617.54-2.85Q619.39-2.85 620.81-3.56 622.24-4.28 623.18-5.54 624.11-6.8 624.46-8.4L624.46-8.4 625.46-5.5 624.26-5.5Q623.91-3.85 622.93-2.48 621.94-1.1 620.28-0.29 618.61 0.53 616.11 0.53ZM628.31 0L624.26 0 624.44-5.9 624.36-7.2 624.36-17.4 624.39-18.25 624.29-25.18 624.29-33.13 628.31-33.13 628.31 0Z" opacity="1" transform="matrix(1,0,0,1,0,0)" fill="#dfdad6" class="slogan-text-1" data-fill-palette-color="quaternary" id="text-1"></path></svg></g></svg></g></svg></g></svg></g><g transform="matrix(1,0,0,1,73.57391570776946,0)"><svg viewBox="0 0 66.0106098116182 58.889881496468114" height="58.889881496468114" width="66.0106098116182"><g><svg xmlns="http://www.w3.org/2000/svg" xmlns:xlink="http://www.w3.org/1999/xlink" version="1.1" x="0" y="0" viewBox="8.387 13.005 84.192 75.11" enable-background="new 0 0 100 100" xml:space="preserve" height="58.889881496468114" width="66.0106098116182" class="icon-icon-0" data-fill-palette-color="quaternary" id="icon-0"><g fill="#dfdad6" data-fill-palette-color="quaternary"><path d="M49.569 22.967C39.594 17.276 28.892 13.842 18.524 13.005V71.356C28.891 72.17 39.574 75.51 49.569 81.055z" fill="#dfdad6" data-fill-palette-color="quaternary"></path><path d="M82.444 13.005C72.076 13.843 61.373 17.276 51.399 22.967V81.054C61.392 75.509 72.078 72.169 82.444 71.355z" fill="#dfdad6" data-fill-palette-color="quaternary"></path><path d="M49.229 84.073C50.043 84.351 50.9 84.363 51.714 84.085 63.371 79.042 75.579 76.772 87.512 77.295V19.524A67 67 0 0 0 84.272 19.469V73.063L83.42 73.119C72.748 73.816 61.688 77.296 51.399 83.167A2.83 2.83 0 0 1 49.569 83.167C39.279 77.296 28.22 73.816 17.548 73.119L16.694 73.063V19.469A66 66 0 0 0 13.455 19.524V77.295C25.387 76.771 37.569 79.03 49.229 84.073" fill="#dfdad6" data-fill-palette-color="quaternary"></path><path d="M92.579 26.009C91.509 25.86 90.422 25.781 89.342 25.674V79.224L88.374 79.168C76.179 78.469 63.314 80.945 51.399 86.233L50.483 86.614 49.568 86.233C37.651 80.945 24.787 78.468 12.592 79.168L11.625 79.224V25.674C10.544 25.782 9.457 25.861 8.387 26.009V84.716A5 5 0 0 1 9.431 85.464C22.382 83.714 35.824 83.928 48.611 88.115A19 19 0 0 1 50.484 88.02C51.145 88.02 51.769 88.057 52.356 88.115 65.141 83.927 78.585 83.714 91.535 85.464 91.535 85.464 92.009 85.002 92.579 84.716z" fill="#dfdad6" data-fill-palette-color="quaternary"></path></g></svg></g></svg></g><g></g></svg></g></svg></g></svg></g></svg></g><defs></defs></svg><rect width="342.85155851775386" height="342.85155851775386" fill="none" stroke="none" visibility="hidden"></rect></g></svg></g></svg>