<svg xmlns="http://www.w3.org/2000/svg" version="1.1" xmlns:xlink="http://www.w3.org/1999/xlink" xmlns:svgjs="http://svgjs.dev/svgjs" width="1440" height="560" preserveAspectRatio="none" viewBox="0 0 1440 560"><g mask="url(&quot;#SvgjsMask1063&quot;)" fill="none"><rect width="1440" height="560" x="0" y="0" fill="rgba(248, 180, 0, 0.49)"></rect><path d="M0,350.374C76.062,362.883,159.231,390.067,226.557,352.529C294.364,314.722,318.106,230.422,345.453,157.763C371.235,89.262,381.949,18.554,379.794,-54.606C377.409,-135.59,386.13,-227.388,332.326,-287.962C278.583,-348.467,187.004,-355.067,106.409,-362.394C36.785,-368.724,-27.305,-339.953,-95.987,-326.902C-173.708,-312.133,-262.909,-331.059,-323.867,-280.632C-386.756,-228.608,-403.592,-140.419,-418.432,-60.161C-433.756,22.714,-457.855,117.771,-410.411,187.428C-363.049,256.964,-261.441,254.09,-183.246,285.136C-121.738,309.556,-65.301,339.635,0,350.374" fill="rgba(228, 166, 0, 0.49)"></path><path d="M1440 971.489C1520.519 972.5550000000001 1603.892 963.942 1670.835 919.1859999999999 1737.237 874.7909999999999 1768.019 797.44 1805.684 727.002 1845.878 651.833 1908.594 578.727 1898.1190000000001 494.132 1887.613 409.291 1814.386 348.01099999999997 1751.5720000000001 290.021 1694.243 237.09500000000003 1626.421 201.61200000000002 1552.917 175.44099999999997 1475.577 147.904 1394.583 114.08100000000002 1315.096 134.61399999999998 1234.754 155.368 1173.9479999999999 219.928 1124.047 286.226 1076.498 349.398 1052.704 424.497 1038.378 502.255 1023.556 582.707 1007.94 667.413 1039.9470000000001 742.698 1072.284 818.759 1141.313 872.096 1213.059 913.127 1282.2640000000001 952.7049999999999 1360.284 970.434 1440 971.489" fill="rgba(255, 189, 13, 0.49)"></path></g><defs><mask id="SvgjsMask1063"><rect width="1440" height="560" fill="#ffffff"></rect></mask></defs></svg>