<svg xmlns="http://www.w3.org/2000/svg" version="1.1" xmlns:xlink="http://www.w3.org/1999/xlink" xmlns:svgjs="http://svgjs.dev/svgjs" width="1440" height="560" preserveAspectRatio="none" viewBox="0 0 1440 560"><g mask="url(&quot;#SvgjsMask1057&quot;)" fill="none"><rect width="1440" height="560" x="0" y="0" fill="rgba(250, 131, 255, 0.24)"></rect><path d="M0,493.414C96.488,492.419,188.82,470.54,276.486,430.221C375.469,384.696,494.645,345.655,538.305,245.836C581.928,146.102,528.023,32.701,495.846,-71.292C467.929,-161.516,434.199,-252.108,364.509,-315.849C298.735,-376.008,202.039,-375.563,121.475,-413.705C21.098,-461.227,-55.918,-576.789,-166.568,-567.278C-276.993,-557.786,-372.749,-465.455,-423.39,-366.869C-470.892,-274.394,-420.165,-165.088,-426.468,-61.317C-432.089,31.234,-484.556,120.385,-458.387,209.338C-430.704,303.438,-363.551,384.292,-280.176,435.962C-197.465,487.22,-97.301,494.417,0,493.414" fill="rgba(245, 4, 255, 0.24)"></path><path d="M1440 940.361C1510.54 940.899 1570.388 893.1279999999999 1627.324 851.481 1681.375 811.944 1719.0810000000001 759.112 1760.128 706.198 1813.904 636.876 1902.6190000000001 580.787 1905.339 493.094 1908.063 405.259 1835.829 332.986 1773.629 270.909 1714.545 211.94099999999997 1639.737 175.812 1560.655 149.08800000000002 1478.758 121.41199999999998 1392.297 90.72899999999998 1309.0140000000001 113.90100000000001 1225.312 137.18900000000002 1161.593 204.2 1110.367 274.372 1061.987 340.64599999999996 1040.691 419.723 1026.734 500.581 1012.424 583.488 982.571 677.463 1028.6399999999999 747.862 1074.716 818.2719999999999 1178.288 812.975 1254.502 848.64 1318.269 878.48 1369.598 939.8240000000001 1440 940.361" fill="rgba(255, 255, 255, 0.24)"></path></g><defs><mask id="SvgjsMask1057"><rect width="1440" height="560" fill="#ffffff"></rect></mask></defs></svg>